#!OML:ASF H:\Punching\Project 1\Capture day 1\Session 1\female.ASF
:FULLY-SPECIFIED
:DEGREES
1086
root 0.978427 9.25409 -0.507057 8.31894 -18.6872 8.37269
lowerback 32.103 3.40553 -0.349995
upperback 1.76019 4.11303 -0.580283
thorax -14.7065 1.7892 -2.13198
lowerneck -14.0437 -4.8949 3.1939
upperneck 10.2666 -6.90081 -2.37463
head 5.18102 -3.41428 -1.82724
rclavicle 4.6118e-014 -3.81667e-014
rhumerus 55.0793 0.780611 -65.4668
rradius 42.1673
rwrist -31.9615
rhand -17.4081 -24.0657
rfingers 7.12502
rthumb 8.84152 -53.8605
lclavicle 4.6118e-014 -3.81667e-014
lhumerus 36.5271 -36.0489 71.0754
lradius 133.938
lwrist 12.8998
lhand -24.1235 9.84887
lfingers 7.12502
lthumb 2.3581 39.8156
rfemur -48.3035 -49.991 -32.944
rtibia 116.973
rfoot -44.8396 18.3431
rtoes -40.47
lfemur -95.3711 22.5278 -26.8542
ltibia 107.138
lfoot -21.0988 -0.368898
ltoes -9.50742
1087
root 0.965006 9.21115 -0.522829 8.02475 -18.6598 8.56785
lowerback 32.4848 3.54451 -0.347486
upperback 1.78313 4.25111 -0.794701
thorax -14.8241 1.83849 -2.44009
lowerneck -14.0212 -5.05249 3.21434
upperneck 10.3563 -7.14645 -2.13831
head 5.2065 -3.51439 -1.77773
rclavicle -8.74653e-015 4.77083e-015
rhumerus 57.2292 -0.381198 -67.1554
rradius 36.6425
rwrist -27.8824
rhand -18.5876 -22.5127
rfingers 7.12502
rthumb 7.7032 -52.3524
lclavicle -8.74653e-015 4.77083e-015
lhumerus 36.4034 -36.4016 70.9394
lradius 134.051
lwrist 12.8586
lhand -23.9881 9.54478
lfingers 7.12502
lthumb 2.48887 39.51
rfemur -48.0719 -50.5545 -33.6812
rtibia 117.51
rfoot -45.0223 18.5718
rtoes -40.3948
lfemur -95.375 22.6089 -26.8866
ltibia 107.37
lfoot -21.1306 -0.469674
ltoes -9.71856
1088
root 0.95196 9.17494 -0.535995 7.8039 -18.6224 8.72311
lowerback 32.8164 3.63414 -0.413138
upperback 1.78913 4.30806 -0.9661
thorax -14.9484 1.85769 -2.63092
lowerneck -14.0187 -5.15227 3.25787
upperneck 10.4387 -7.32024 -1.89923
head 5.23492 -3.5782 -1.72599
rclavicle 6.36111e-014 -1.74931e-014
rhumerus 58.9207 -1.5355 -69.3329
rradius 32.4342
rwrist -23.0207
rhand -19.8831 -20.8841
rfingers 7.12502
rthumb 6.45265 -50.7658
lclavicle 6.36111e-014 -1.74931e-014
lhumerus 36.2915 -36.7344 70.8201
lradius 134.187
lwrist 12.7723
lhand -23.8864 9.29247
lfingers 7.12502
lthumb 2.58706 39.2565
rfemur -47.8631 -51.0953 -34.3073
rtibia 117.979
rfoot -45.169 18.7981
rtoes -40.296
lfemur -95.3894 22.6374 -26.8756
ltibia 107.565
lfoot -21.1773 -0.528299
ltoes -9.93341
1089
root 0.939398 9.14545 -0.546556 7.65522 -18.5788 8.81979
lowerback 33.099 3.67201 -0.545741
upperback 1.77743 4.28205 -1.08721
thorax -15.0825 1.84636 -2.6956
lowerneck -14.0265 -5.17669 3.34756
upperneck 10.522 -7.39915 -1.68599
head 5.26564 -3.59556 -1.68247
rclavicle 4.92986e-014 9.54166e-015
rhumerus 60.0654 -2.54969 -71.6844
rradius 29.7535
rwrist -17.7637
rhand -20.788 -19.6448
rfingers 7.12502
rthumb 5.57901 -49.5513
lclavicle 4.92986e-014 9.54166e-015
lhumerus 36.1633 -37.0221 70.7406
lradius 134.334
lwrist 12.6264
lhand -23.786 9.09337
lfingers 7.12502
lthumb 2.68406 39.0562
rfemur -47.6923 -51.5763 -34.7909
rtibia 118.376
rfoot -45.2799 19.0114
rtoes -40.1959
lfemur -95.4162 22.6299 -26.807
ltibia 107.728
lfoot -21.2341 -0.557943
ltoes -10.1346
1090
root 0.927512 9.12247 -0.5548 7.57656 -18.5338 8.85177
lowerback 33.3183 3.6598 -0.751636
upperback 1.75449 4.1742 -1.15075
thorax -15.2139 1.80641 -2.62126
lowerneck -14.0383 -5.11629 3.48912
upperneck 10.6154 -7.36796 -1.52515
head 5.29934 -3.56067 -1.655
rclavicle -3.89618e-014 -7.95139e-015
rhumerus 60.5397 -3.20896 -73.6194
rradius 28.7721
rwrist -12.9523
rhand -20.7847 -19.0363
rfingers 7.12502
rthumb 5.58221 -48.9428
lclavicle -3.89618e-014 -7.95139e-015
lhumerus 36.0108 -37.2424 70.7171
lradius 134.472
lwrist 12.411
lhand -23.6616 8.9344
lfingers 7.12502
lthumb 2.80415 38.8957
rfemur -47.5722 -51.9618 -35.12
rtibia 118.699
rfoot -45.3628 19.215
rtoes -40.1183
lfemur -95.4615 22.6013 -26.6822
ltibia 107.866
lfoot -21.2914 -0.553416
ltoes -10.3102
1091
root 0.916885 9.1056 -0.560523 7.555 -18.4975 8.80944
lowerback 33.4757 3.59739 -1.02384
upperback 1.72708 3.9876 -1.15266
thorax -15.3338 1.73947 -2.40735
lowerneck -14.0575 -4.96808 3.68617
upperneck 10.7414 -7.22056 -1.4407
head 5.34266 -3.47181 -1.65162
rclavicle 5.56597e-015 -1.11319e-014
rhumerus 60.3055 -3.34175 -74.6591
rradius 29.4843
rwrist -9.42238
rhand -19.8241 -19.0732
rfingers 7.12502
rthumb 6.5096 -48.9531
lclavicle 5.56597e-015 -1.11319e-014
lhumerus 35.8253 -37.3775 70.7517
lradius 134.591
lwrist 12.1355
lhand -23.5294 8.83659
lfingers 7.12502
lthumb 2.93183 38.7962
rfemur -47.5064 -52.2135 -35.2881
rtibia 118.94
rfoot -45.4203 19.421
rtoes -40.0748
lfemur -95.5206 22.5767 -26.4974
ltibia 107.988
lfoot -21.3273 -0.49685
ltoes -10.4792
1092
root 0.908005 9.09468 -0.564364 7.58493 -18.4787 8.67671
lowerback 33.5789 3.48516 -1.33659
upperback 1.7067 3.73183 -1.09672
thorax -15.4279 1.64843 -2.07512
lowerneck -14.0833 -4.73513 3.94139
upperneck 10.8834 -6.96071 -1.4371
head 5.39039 -3.3314 -1.67396
rclavicle 4.45278e-014 -1.43125e-014
rhumerus 59.435 -2.88882 -74.6728
rradius 31.7773
rwrist -7.88659
rhand -18.1569 -19.4158
rfingers 7.12502
rthumb 8.11893 -49.2398
lclavicle 4.45278e-014 -1.43125e-014
lhumerus 35.6417 -37.4133 70.8151
lradius 134.675
lwrist 11.8399
lhand -23.5061 8.9206
lfingers 7.12502
lthumb 2.95433 38.8799
rfemur -47.5305 -52.3033 -35.2492
rtibia 119.102
rfoot -45.4285 19.6165
rtoes -40.0606
lfemur -95.5862 22.5726 -26.2379
ltibia 108.098
lfoot -21.345 -0.450269
ltoes -10.5182
1093
root 0.901332 9.08909 -0.566453 7.65893 -18.4873 8.44014
lowerback 33.6364 3.32677 -1.65257
upperback 1.69846 3.42485 -0.989401
thorax -15.4887 1.53841 -1.65935
lowerneck -14.0918 -4.43389 4.2353
upperneck 11.02 -6.60682 -1.50215
head 5.43333 -3.14882 -1.71552
rclavicle -2.14687e-014 4.29375e-014
rhumerus 58.1132 -1.92691 -73.8849
rradius 35.422
rwrist -8.59195
rhand -16.4177 -19.8808
rfingers 7.12502
rthumb 9.79719 -49.6329
lclavicle -2.14687e-014 4.29375e-014
lhumerus 35.4856 -37.3509 70.8858
lradius 134.718
lwrist 11.5819
lhand -23.5951 9.18112
lfingers 7.12502
lthumb 2.86841 39.1416
rfemur -47.6595 -52.2162 -34.9788
rtibia 119.188
rfoot -45.3934 19.7972
rtoes -40.0887
lfemur -95.6564 22.6112 -25.8936
ltibia 108.202
lfoot -21.3271 -0.427971
ltoes -10.4038
1094
root 0.897154 9.08769 -0.566505 7.76199 -18.5278 8.11848
lowerback 33.6554 3.12812 -1.95534
upperback 1.71086 3.07801 -0.846756
thorax -15.5055 1.41247 -1.19159
lowerneck -14.0802 -4.08113 4.55552
upperneck 11.1289 -6.17963 -1.6253
head 5.46507 -2.93445 -1.77232
rclavicle 1.59028e-015 -1.27222e-014
rhumerus 56.5192 -0.626837 -72.7266
rradius 40.2175
rwrist -11.4044
rhand -15.2216 -20.4337
rfingers 7.12502
rthumb 10.951 -50.1281
lclavicle 1.59028e-015 -1.27222e-014
lhumerus 35.3885 -37.1969 70.9402
lradius 134.72
lwrist 11.4277
lhand -23.7303 9.51326
lfingers 7.12502
lthumb 2.73778 39.4754
rfemur -47.8684 -51.9705 -34.5274
rtibia 119.2
rfoot -45.3179 19.9838
rtoes -40.1525
lfemur -95.7201 22.6988 -25.4821
ltibia 108.306
lfoot -21.2804 -0.461107
ltoes -10.0916
1095
root 0.895439 9.08932 -0.565023 7.88684 -18.5869 7.73381
lowerback 33.6568 2.8969 -2.21665
upperback 1.72373 2.70955 -0.681657
thorax -15.5083 1.27552 -0.711043
lowerneck -13.9913 -3.70633 4.86757
upperneck 11.1883 -5.71122 -1.78592
head 5.47081 -2.70427 -1.8334
rclavicle 7.95139e-015 -3.97569e-014
rhumerus 54.738 0.837675 -71.4892
rradius 45.9421
rwrist -16.0118
rhand -15.0806 -21.1137
rfingers 7.12502
rthumb 11.087 -50.8009
lclavicle 7.95139e-015 -3.97569e-014
lhumerus 35.3365 -37.004 70.9996
lradius 134.684
lwrist 11.421
lhand -23.9241 9.89642
lfingers 7.12502
lthumb 2.55066 39.8609
rfemur -48.1335 -51.6219 -33.9441
rtibia 119.154
rfoot -45.2036 20.1683
rtoes -40.2596
lfemur -95.7786 22.821 -25.027
ltibia 108.411
lfoot -21.2096 -0.573459
ltoes -9.60159
1096
root 0.896069 9.09349 -0.561087 8.03135 -18.6644 7.29029
lowerback 33.6496 2.63172 -2.40462
upperback 1.74972 2.32455 -0.522759
thorax -15.4835 1.12637 -0.268647
lowerneck -13.8775 -3.32053 5.1883
upperneck 11.1935 -5.22578 -1.95663
head 5.4577 -2.46719 -1.89646
rclavicle -9.54166e-015 2.14687e-014
rhumerus 52.8459 2.313 -70.3671
rradius 52.3703
rwrist -21.9838
rhand -16.025 -21.8872
rfingers 7.12502
rthumb 10.176 -51.6211
lclavicle -9.54166e-015 2.14687e-014
lhumerus 35.3853 -36.7801 70.9992
lradius 134.617
lwrist 11.6005
lhand -24.1295 10.2578
lfingers 7.12502
lthumb 2.35232 40.2245
rfemur -48.4106 -51.1899 -33.2681
rtibia 119.051
rfoot -45.0658 20.3763
rtoes -40.3808
lfemur -95.828 22.9758 -24.5261
ltibia 108.524
lfoot -21.1311 -0.752322
ltoes -8.95693
